<svg version="1.2" xmlns="http://www.w3.org/2000/svg" viewBox="0 0 559 559" width="559" height="559"><style></style><path fill-rule="evenodd" d="m215.9 0c1 0.2 2 1.5 2.2 2.8 0.2 1.4-1 5.2-2.6 8.5-1.6 3.3-5 8.7-7.6 11.9-2.5 3.2-7.3 7.7-10.7 10.1-3.4 2.3-8.9 5.4-12.2 6.8-3.4 1.4-15.9 5.6-27.8 9.3-12 3.7-25 8-28.9 9.5-4.9 1.9-10 5.1-15.5 9.7-4.6 3.7-10.2 9.5-12.6 12.8-2.3 3.3-5.2 8.7-6.4 12-1.2 3.3-2.9 9.6-3.8 14-0.9 4.4-2.2 11.6-2.8 16-0.7 4.4-2.1 17.3-3.2 28.5-1.2 11.3-2.4 21.1-2.8 21.8-0.4 0.7-1.4 1.3-2.1 1.3-0.8 0-2.1-1-2.9-2.3-1.3-1.8-1.4-9.2-0.9-39.3 0.5-29.4 0.9-38.2 2.4-43 0.9-3.3 3.8-9.8 6.3-14.5 3.6-6.9 6.3-10.2 14.1-17.2 7.1-6.4 11.5-9.5 16.8-11.7 4-1.7 19.7-6.3 35-10.2 15.3-3.9 30.6-8.3 34-9.8 3.7-1.6 9.3-5.5 14.4-10.1 4.7-4.2 10.1-9.7 12.1-12.4 2.3-3.1 4.3-4.7 5.5-4.5zm158.4 76.9c0.8-0.1 2.4 1 3.7 2.2 1.3 1.3 4.6 5.4 7.3 9.3 2.7 3.8 8 11.5 11.7 17 3.7 5.5 8.1 12.4 9.7 15.3 1.6 2.9 4.1 8.9 5.5 13.5 1.5 4.5 3.1 10.7 3.5 13.7 0.6 4.2 0.2 7.5-1.5 13.5-1.3 4.5-3.6 10.6-5.1 13.8-1.6 3.2-6.7 11.3-11.4 18-4.7 6.8-10.7 16.3-13.4 21.3-3.9 7.1-5.1 10.7-5.9 17-0.5 4.4-1 15.1-1 23.8 0 8.6 0.2 15.7 0.5 15.7 0.3 0 3.4-1.9 6.9-4.2 3.5-2.3 9.2-6 12.5-8.2 3.4-2.2 11.9-8.1 18.9-13.1 7.1-5 14.5-10.1 16.4-11.3 2-1.2 3.5-2.8 3.3-3.5-0.2-0.6-3.6-3.1-7.5-5.5-3.9-2.4-7.8-5.2-8.5-6.3-1.2-1.5-1.2-2.1 0-2.9 0.9-0.6 2.8-0.3 5.8 1 2.4 1.1 7.1 3.8 10.3 6 3.2 2.2 6.3 4 6.9 4 0.6 0 6.3-2.3 12.5-5 9.5-4.2 12.5-5 17.6-5 4.6 0 6.6 0.5 8.3 2 2.1 2 2.2 2.2 0.3 5.5-1.1 1.9-6.6 7-12.3 11.2-8.2 6.2-10.2 8.2-10.2 10.3 0.1 1.4 1.5 8.4 3.3 15.5 2.9 12 3 13.7 2 22-0.8 6.3-2.4 11.8-5.2 18.1-2.2 4.9-5.2 9.7-6.6 10.6-1.9 1.3-2.8 1.5-3.9 0.5-0.8-0.6-1.4-1.6-1.3-2.1 0-0.6 0.7-1.7 1.5-2.5 0.8-0.9 2.8-4.4 4.4-7.8 1.6-3.4 3.4-9.7 4-14 0.7-4.8 0.7-10.5 0-14.8-0.5-3.8-1.4-9.5-2-12.5-0.5-3-1.5-6.5-2.2-7.7-0.7-1.3-1.6-2.3-2.1-2.3-0.5-0.1-1.6 0.6-2.5 1.5-0.9 0.9-2.1 1.6-2.5 1.6-0.5-0.1-6.3 3.3-13.1 7.4-6.7 4.1-12.6 7.5-13 7.6-0.5 0-4 2-7.8 4.5-3.8 2.4-7.3 4.5-7.8 4.5-0.5 0-3.1 1.5-5.8 3.3-2.8 1.8-5.8 3.6-6.7 4-0.9 0.3-2.7 1.2-3.9 1.9-1.2 0.7-4.5 2.6-7.2 4.2-2.8 1.7-6 3.6-7.3 4.3-1.2 0.6-2.9 1.5-3.9 1.9-0.9 0.4-3.8 2-6.3 3.5-2.6 1.6-5.2 2.9-5.6 2.9-0.5 0-2.5 1.1-4.5 2.5-1.9 1.3-3.8 2.5-4.1 2.5-0.3 0-2.2 1-4.2 2.2-1.9 1.2-4.6 2.8-5.8 3.5-1.2 0.7-3.8 1.9-5.6 2.8-1.8 0.8-4.8 2.4-6.7 3.5-1.8 1.1-4.3 2.3-5.5 2.9-1.2 0.5-4.1 2-6.4 3.5-2.3 1.4-4.4 2.6-4.7 2.6-0.4 0-5.1 2.4-10.6 5.5-5.5 3-10.9 5.4-12 5.2-1-0.1-2.1-0.9-2.3-1.7-0.2-0.9 5.4-5.6 14.4-12 8.1-5.8 22.5-16.1 32-22.9 9.6-6.8 19-13.8 20.9-15.5 3.5-3.1 3.6-3.3 4.3-15.2 0.3-6.6 1.4-19.6 2.3-29 0.9-9.3 2.4-19.9 3.3-23.5 0.9-3.6 3.1-8.7 4.7-11.5 1.7-2.7 6.3-9.2 10.2-14.5 4-5.3 9.8-13 12.9-17.1 3.1-4.1 6.7-9.9 8-13 1.2-3 2.6-7.9 3-11 0.4-3.1 0.2-7.6-0.5-10.5-0.7-2.7-2.6-7.9-4.2-11.5-1.5-3.6-7.4-15.5-13.1-26.5-5.6-11-10.5-21-10.9-22.3-0.4-1.2-0.5-2.7-0.1-3.2 0.3-0.6 1.2-1 1.9-1zm82.5 152.5c-1.2 0.6-3.6 2-5.3 3.1-2.5 1.6-2.8 2.2-1.6 3.3 0.7 0.7 2.1 1.3 3 1.3 1 0 5.3-2.8 9.8-6.1 4.4-3.3 8-6.5 8-7 0-0.6-0.3-1-0.8-1-0.5 0.1-3.1 1.3-5.8 2.7-2.8 1.4-6 3.1-7.3 3.7zm-17.2 10.2c-2.2 1.5-6.5 5-9.7 7.8-3.3 2.8-5.9 5.7-5.9 6.4 0 0.9 0.7 1 3.1 0.1 1.7-0.6 6-2.9 9.7-5.2 3.7-2.2 7.7-4.7 9-5.6l2.3-1.6-4.7-4.6zm-317.5 162.5c0.7-0.1 3.3 1.3 5.9 3 2.6 1.6 4.8 3.8 4.8 4.7 0 1-1.3 6.3-2.7 11.8-1.5 5.5-3.5 13.8-4.5 18.5-1.3 6.2-1.8 14.6-1.7 30.5 0 12.1 0.5 28.4 1.1 36.1 0.7 7.7 2.4 21.4 4 30.5 1.5 9.1 2.6 17.6 2.4 19-0.2 1.4-1.1 2.6-2.3 2.7-1.3 0.2-2.6-1-4.1-4-1.2-2.3-4.4-11.4-7.1-20.2-2.7-8.8-6.1-21-7.5-27-2.5-10.3-2.7-13.2-2.6-41.6 0-28.1 0.2-31.2 2.5-40 1.4-5.2 3.3-11.8 4.3-14.5 1-2.8 2.8-6 4-7.3 1.3-1.2 2.8-2.2 3.5-2.2zm28.4-246.2c1.5 0 3.5 1.7 5.7 4.8 1.9 2.6 10.9 18.2 20.1 34.7 9.2 16.6 18 34.1 19.8 39.1 1.7 4.9 3.8 11.7 4.5 15 0.9 3.9 1.1 12.5 0.8 24.5-0.4 17.8-0.6 18.8-4.1 27.5-1.9 5-7.1 15.1-11.4 22.5-4.3 7.5-11.3 18.7-15.6 25-4.3 6.4-10.9 15.2-14.7 19.6-3.8 4.4-8.6 8.9-10.7 10.2-2.1 1.2-6.3 2.6-9.4 3.2-3.7 0.7-6 0.7-6.9 0.1-1.1-0.8-0.4-2.8 3.2-8.8 2.5-4.3 6.4-10.2 8.6-13.2 2.3-3.1 4.7-6.7 5.5-8.1 0.7-1.3 2.3-3.8 3.5-5.5 1.2-1.6 2.8-4.1 3.7-5.5 0.8-1.3 2.7-4.3 4.1-6.5 1.5-2.2 3.6-5.5 4.7-7.5 1.1-1.9 3.3-5.3 4.7-7.5 1.5-2.2 4.9-8 7.7-13 2.7-4.9 6-12.1 7.3-16 1.3-3.9 3-11.1 3.7-16 1-7.5 0.9-10.9-0.7-20.5-1-6.4-3.4-15.6-5.3-20.5-1.9-5-9.9-23.9-17.8-42.1-7.9-18.1-14.2-33.6-13.8-34.2 0.3-0.7 1.6-1.3 2.8-1.3zm227.6 144.1c1.5 0 3.3 1 4.2 2.3 0.9 1.2 3.7 6.7 6.2 12.2 2.5 5.5 8.2 19 12.7 30 4.6 11 9.8 24.8 11.6 30.6 1.9 5.7 4.8 15.9 6.5 22.5 3 11.9 3.1 12.3 3.1 84l-5.2 20.6c-2.9 11.2-6.1 22.8-7 25.7-0.9 2.9-2.4 5.5-3.3 5.8-1 0.3-2.3 0.1-3.1-0.5-1-0.7-1.2-2.3-0.6-5.7 0.5-2.7 2-12.9 3.3-22.8 1.9-14.2 2.4-24 2.4-45.6 0.1-21.5-0.3-30-1.8-39-1.1-6.3-3.2-15.6-4.7-20.5-1.5-5-5.2-15.6-8.2-23.5-3-8-9-22.9-13.2-33.1-4.3-10.1-8.6-20.7-9.5-23.5-0.9-2.7-2-6.7-2.4-8.7-0.5-3.2-0.1-4.3 2.8-7.3 2.2-2.2 4.5-3.5 6.2-3.5zm68.1 15.1c1 0.7 1.6 2.3 1.5 3.8-0.1 1.4-0.9 3.5-1.6 4.5-0.9 1.3-2.1 1.7-3.4 1.3-1.2-0.4-2-1.9-2.1-3.8-0.2-2 0.6-3.9 1.8-5 1.6-1.5 2.4-1.6 3.8-0.8zm-339.5 5.9c0.9 0 1.8 0.7 2.2 1.5 0.3 0.9-1.6 5-4.1 9.3-2.5 4.2-5.8 10.7-7.3 14.2-2.1 5-2.6 7.6-2.1 11.1 0.4 2.4 1.8 6.5 3 9 1.2 2.4 3.5 5.9 5 7.7 1.5 1.8 5.3 4.8 8.5 6.6 3.2 1.9 9.6 4.6 14.2 6.1 7.7 2.6 9.2 2.7 19.4 2.2 6.9-0.3 14.6-1.5 20.1-3 4.9-1.3 17.1-4.6 27.2-7.4 10.1-2.7 20.4-5.3 22.8-5.7 3.4-0.5 4.8-0.3 5.8 0.9 1.1 1.2 1.1 1.9 0 3.2-0.7 0.9-4.9 3.1-9.1 4.9-4.3 1.8-12.3 4.6-17.8 6.3-5.5 1.6-13.3 3.7-17.3 4.5-3.9 0.9-13.7 2.1-21.6 2.7-8 0.6-18.8 0.8-24 0.5-5.1-0.4-12-1.3-15.2-2.1-4.4-1-7.5-2.8-12.3-6.8-3.5-2.9-7.9-7.3-9.7-9.7-1.8-2.4-4.2-7.3-5.3-10.9-1.1-3.6-1.9-7.9-1.9-9.5 0-1.7 0.7-5.8 1.7-9.1 1-3.3 2.7-7.8 3.9-10 1.2-2.2 2.8-4.9 3.6-6 0.7-1.1 3-4 5-6.3 2.1-2.3 4.4-4.2 5.3-4.2zm161.1 23c0.6 0 1.8 0.6 2.6 1.3 0.8 0.7 1.4 1.9 1.4 2.7 0 0.9-2.2 3.4-4.8 5.6-2.6 2.2-6.2 4.9-8 6.1-1.9 1.1-6.1 3.2-9.5 4.7-3.4 1.5-8 3-10.2 3.4-3.4 0.6-4.3 0.4-5-1-0.7-1.3-0.1-2.5 1.9-4.3 1.5-1.5 6-4.8 10-7.4 4-2.7 10.2-6.2 13.8-7.9 3.6-1.8 7.1-3.2 7.8-3.2z"/></svg>