<svg version="1.2" xmlns="http://www.w3.org/2000/svg" viewBox="0 0 5000 223" width="5000" height="223"><style>.a{opacity:1}</style><path fill-rule="evenodd" class="a" d="m4980.3 37.1c3-0.1 6.2 0.7 8.9 2.1 2.4 1.2 5.1 3.1 6 4.2 1 1.2 1.8 2.8 1.8 3.6 0 0.8-1.3 3.6-3 6.2-1.9 3-5.2 6.2-8.8 8.5-3.1 2-10 5.6-15.2 8.1-5.2 2.4-11.1 5.2-13 6.2-1.9 1-8.7 3.9-15 6.4-6.3 2.5-11.8 4.6-12.3 4.6-0.4 0-11.8 5.2-25.5 11.6-13.6 6.4-32.6 15.1-42.2 19.4-9.6 4.3-29.2 13.3-43.5 20-14.3 6.7-42.9 20.1-63.5 29.7-20.6 9.6-41.8 19.4-47 21.8-5.2 2.4-13.3 6.1-18 8.2-4.7 2.2-18 8.4-29.5 13.8-11.5 5.4-21.5 10.1-22 10.5-0.5 0.5-1.8 0.5-2.8 0.2-1-0.4-1.7-1.4-1.5-2.2 0.2-0.8 8.6-6.8 18.8-13.2 10.2-6.5 25.9-16.3 35-21.7 9.1-5.4 26-15.3 37.5-21.8 11.5-6.6 27.5-15.6 35.5-20 8-4.4 21.5-11.8 30-16.5 8.5-4.7 20.9-11.3 27.5-14.8 6.6-3.5 18.1-9.5 25.5-13.5 7.4-4 31-16.1 52.5-27 21.5-10.9 40.6-20.8 42.5-22.1 1.9-1.2 8.7-3.8 15-5.8 6.3-1.9 13.7-4.2 16.5-5 2.7-0.7 7.1-1.4 9.7-1.5zm-21.3 16.8c-5.2 1.8-12.8 4.9-16.9 6.8-4.1 1.9-11.5 5.8-16.5 8.7-5 3-9.6 6.1-10.4 7.1-1.3 1.7-1.1 1.8 3.5 1 2.7-0.4 9.4-2.4 14.9-4.5 5.5-2 15.4-6.3 22-9.5 6.6-3.2 14.4-7.3 17.2-9.2 2.9-1.8 5.3-3.8 5.3-4.3 0-0.5-1.5-0.9-3.3-0.9-1.7 0.1-3.9 0.4-4.8 0.7-0.9 0.4-5.9 2.2-11 4.1z"/><path  d="m4808 1.7c-5.8 0.8-13.9 2.5-18 3.9-4.1 1.4-10.6 4-14.5 5.9-3.9 1.8-10.4 6-14.5 9.3-4.1 3.2-15.2 13.1-24.5 21.8-9.4 8.8-21.1 19.3-26 23.5-5 4.2-12.8 10.2-17.5 13.4-4.7 3.1-11.4 7.2-15 9-3.6 1.8-9.6 4.5-13.5 6-3.9 1.5-10.4 3.5-14.5 4.6-4.1 1-12.2 2.3-18 3-5.8 0.6-15 0.9-20.5 0.6-5.5-0.3-14.3-1.5-19.5-2.7-5.2-1.2-13.8-3.7-19-5.7-5.2-1.9-12.2-4.9-15.5-6.6-3.3-1.6-10.7-5.9-16.5-9.5-5.8-3.6-16.4-10.1-23.5-14.5-7.1-4.4-17.9-10.4-24-13.3-6.1-2.8-15.3-6.6-20.5-8.3-5.2-1.7-12.6-3.8-16.5-4.6-3.9-0.8-12.9-1.7-20-2.1-8-0.4-16.7-0.2-22.5 0.5-5.2 0.7-13.6 2.5-18.5 4.2-4.9 1.6-15.3 6.1-23 10-7.7 3.8-16.6 8.8-19.7 11.2-3.2 2.3-5.8 5-5.8 6 0 0.9 0.7 1.9 1.5 2.2 0.8 0.3 8.3-2.9 16.5-7 8.3-4.1 20.5-9.4 27.3-11.7l12.2-4.3c47.5 0 48.2 0.1 57 2.8 4.9 1.6 12.1 4.2 16 5.8 3.9 1.6 13.5 6.6 21.5 11.2 8 4.6 20.1 11.9 27 16.2 6.9 4.4 17 10.3 22.5 13.1 5.5 2.9 14.5 6.8 20 8.7 5.5 1.9 14.7 4.5 20.5 5.8 9.1 2.1 13 2.4 29 2.3 13.2 0 21.1-0.5 27.5-1.8 4.9-0.9 12.6-2.8 17-4.3 4.4-1.4 12.9-5 19-8 6.1-3 13.3-6.8 16-8.6 2.7-1.7 8.1-5.4 12-8.1 3.9-2.8 10.1-7.7 14-10.9 3.9-3.3 15.5-13.9 25.9-23.6 10.3-9.7 20-18.4 21.5-19.4 1.4-1 5.3-3.2 8.6-4.9 3.3-1.7 11.6-4.6 18.5-6.4 12-3.3 13.2-3.4 29.5-3.4 9.4 0 22.9 0.5 30 0.9 9.4 0.7 16 1.8 24 4 6.8 1.9 16.4 5.8 25 10 7.7 3.8 17.4 9.2 21.5 11.9 4.1 2.7 10.2 7.3 13.4 10.3 3.5 3.2 9.3 10.5 14.1 17.9 4.6 6.9 9 14.5 9.8 17 0.9 2.5 2.1 7.7 2.7 11.5 0.7 4 1.1 11.9 0.8 18.5-0.3 9.6-0.8 12.3-2.9 16.5-1.3 2.7-3.6 6.2-5.2 7.7-1.6 1.7-4.2 3-6.5 3.4-3.3 0.5-4.1 0.2-7-2.8-1.9-1.8-4.4-5.1-5.7-7.3-2-3.5-2.3-5.7-2.7-18.5l-0.5-14.5c6.7-14 8.7-18.7 8.7-19.5 0.1-0.8-0.7-2.2-1.6-3-1.5-1.4-2-1.1-5.3 2.6-2 2.2-4.8 6.6-6.3 9.7-1.6 3.2-3.5 9.6-4.3 14.5-0.8 4.8-1.5 10.6-1.5 13 0 2.3 0.5 6.6 1.1 9.5 0.6 2.8 2.2 7.5 3.5 10.2 1.3 2.8 3.6 6.6 5.2 8.5 1.6 1.9 5.2 4.7 8 6.3 3 1.5 6.8 2.7 9 2.7 2.4 0 5.1-0.9 7.7-2.7 2.2-1.5 4.8-3.6 5.8-4.8 1-1.1 3.1-4.7 4.8-8 1.8-3.3 3.8-9.2 4.6-13 1.1-5 1.3-9.7 0.8-16.5-0.3-5.2-1.3-12.9-2.1-17-0.8-4.1-3-10.9-5-15-1.9-4.1-5.7-11-8.2-15.3-2.6-4.3-7.4-10.5-10.7-13.7-3.3-3.2-8.5-7.8-11.5-10.3-3-2.4-8.4-6.4-12-8.9-3.6-2.4-9.4-6.2-13-8.2-3.6-2.1-10.1-5.3-14.5-7.1-4.4-1.8-12.1-4.5-17-5.8-4.9-1.4-11.7-3-15-3.7-3.3-0.6-10.9-1.7-17-2.5-6.1-0.8-16.2-1.5-22.5-1.4-6.3 0.1-16.2 0.8-22 1.6zm-4808 86.8v3.5h14v-7h-14zm3772.5-40.9c-0.5 1.1-0.4 2.6 0.2 3.4 0.5 0.8 6 5.9 12.1 11.3 6.6 5.7 11.9 9.6 12.9 9.4 1-0.1 2-1.2 2.2-2.3 0.4-1.4-0.9-3.6-4.1-7-2.5-2.7-7.8-7.2-11.9-10.1-4.1-2.8-8.1-5.4-9-5.8q-1.7-0.7-2.4 1.1zm-28 1c-2.2 0.8-6.4 2.9-9.2 4.7-2.9 1.8-5.7 4.2-6.3 5.5-0.7 1.6-0.7 2.4 0.2 2.8 0.7 0.3 6-1.2 11.8-3.4 5.8-2.2 12.3-4.5 14.5-5.2 2.2-0.7 4.8-1.7 5.7-2.1 1.5-0.7 1.6-1.2 0.5-2.4-0.8-1.2-2.9-1.6-7.2-1.5-3.3 0.1-7.8 0.8-10 1.6zm-29.6 18.3c-2.5 1.4-9.6 5.7-15.8 9.6-6.2 3.8-11.2 7.2-11.2 7.5 0 0.3 0.7 1.4 1.5 2.5 1.4 2 1.6 1.9 9.3-1.9 4.3-2.1 10.9-5.9 14.7-8.5 3.8-2.5 7.4-5.5 7.9-6.6 0.5-1.1 0.7-2.8 0.3-3.7-0.3-1-0.9-1.8-1.4-1.7-0.4 0.1-2.8 1.3-5.3 2.8zm323.5-1.2c-1.2 0.2-2.8 1.6-3.5 2.9-1.2 2.2-1.2 2.7 0.4 4.2 1.5 1.4 4.2 1.7 17.7 2l16 0.2c1.9-5 1.7-5.8 0-7.5-1.8-1.8-3.5-2-15.3-2.2-7.2 0-14.2 0.1-15.3 0.4zm-30.4 3.4c-4.1 1-9.8 2.6-12.5 3.5-2.8 0.9-6 2.3-7.3 3-1.2 0.8-2.2 2.2-2.2 3.2 0 0.9 0.6 2.6 1.4 3.7 1.4 2 1.5 2 10.3 0.2 4.8-0.9 11.7-2.6 15.3-3.7 3.6-1.1 7.2-2.4 8-3 1.3-0.8 1.2-1.5-0.6-4.7-1.2-2.1-2.8-3.9-3.5-3.9-0.8-0.1-4.8 0.7-8.9 1.7zm79-0.2c-2 0.6-2.5 1.4-2.8 4.4-0.2 3.2 0.2 3.9 2.5 5.1 1.6 0.7 7.7 2.7 13.8 4.5 6.1 1.7 12.2 3.1 13.7 3.1 2 0 3.1-0.7 3.7-2.2 0.5-1.3 1-3.2 1.2-4.3 0.3-1.5-0.8-2.4-6.1-4.6-3.6-1.4-9.6-3.4-13.5-4.3-3.9-1-7.7-1.9-8.5-2.1-0.8-0.1-2.6 0-4 0.4zm226 12.5c-9.1 4.6-16.9 9.1-17.5 10.1-0.8 1.2-0.5 2 1 3.1 1.2 0.9 3 1.3 4.5 0.9 1.4-0.3 7.7-3.1 14-6.1 6.3-3.1 12.7-6.4 14.2-7.5 2.2-1.5 2.7-2.6 2.5-5.1-0.1-1.7-0.7-3.3-1.2-3.5-0.6-0.2-8.5 3.5-17.5 8.1zm-503.6-0.8l-1.9 2.7c6.5 5.6 11.9 9.4 16.2 12 4.3 2.6 8.5 4.5 9.3 4.3 0.8-0.3 2.4-1.8 3.4-3.3 1.6-2.3 1.7-2.9 0.5-3.6-0.8-0.4-6.3-3.7-12.4-7.3-6.1-3.7-11.5-6.8-12.1-7.1-0.6-0.2-2 0.8-3 2.3zm150.1 2.8c-4.9 1.8-11.1 4.2-13.7 5.4-2.7 1.2-5 2.9-5.3 3.7-0.3 0.8 0.2 2.6 1 4 0.8 1.4 2.1 2.5 2.8 2.5 0.6 0 7-1.9 14.2-4.2 7.2-2.3 13.9-5 15-5.9 2-1.6 2-1.6-0.1-5-1.1-1.9-2.7-3.5-3.5-3.6-0.8-0.1-5.5 1.3-10.4 3.1zm173.9 3.1c-1.4 1.9-1.6 3.1-0.9 4.2 0.6 0.8 3 2.6 5.5 3.9 2.5 1.3 8.3 3.7 13 5.3 4.7 1.6 10 3.2 11.8 3.5 2.4 0.5 3.7 0.1 5.2-1.4 1.1-1.1 2-2.9 2-4 0-1.4-1.3-2.6-4.2-3.9-2.4-1-8.8-3.5-14.3-5.6-5.5-2-11.4-3.9-13.1-4.2-2.5-0.4-3.4 0-5 2.2zm-4111.4 2v3.5h34v-7h-34zm40 0v3.5h46v-7h-46zm57 0v3.5h49v-7h-49zm56 0v3.5h49v-7h-49zm55 0v3.5h28v-7h-28zm35 0v3.5h35v-7h-35zm43 0v3.5h34v-7h-34zm40 0v3.5h34v-7h-34zm43 0v3.5h27v-7h-27zm668.2-2.8l-17.2 0.3v7h52l-0.5-7.5c-13.2-0.1-24.8 0-34.3 0.2zm55 0l-13.2 0.3v7h48l-0.5-7.5c-16.3-0.1-27 0-34.3 0.2zm42.8 3.3v4h48v-8h-48zm57 0v4c22.9-0.2 32.9-0.5 37-0.9l7.5-0.6 0.5-6.5h-45zm54-0.7v3.2c25.2 0.8 38.1 0.8 45 0.5l12.5-0.5 0.5-6.5h-58zm67 0.3v3.5h49v-7h-49zm55 0v3.5h48v-7h-48zm52 0v3.5h50v-7h-50zm55 0v3.5h48v-7h-48zm54 0v3.5h48v-7h-48zm53 0v3.5h52v-7h-52zm59 0v3.5h40v-7h-40zm47 0v3.5h29v-7h-29zm35 0v3.5h28v-7h-28zm35 0v3.5h35v-7h-35zm43 0v3.5h34v-7h-34zm40 0v3.5h34v-7h-34zm43 0v3.5h27v-7h-27zm34 0v3.5h25v-7h-25zm32 0v3.5h29v-7h-29zm652.8-2.9c-3.6 0.3-3.8 0.5-3.8 3.9v3.5h53v-8c-35.3 0.2-47.2 0.4-49.2 0.6zm59.7 0c-0.5 0.4-0.8 2-0.7 3.5 0.2 2.5 0.7 2.9 3.5 3.1 1.7 0.2 13.4 0.4 26 0.5l22.7 0.3v-8c-39.3 0-51 0.3-51.5 0.6zm60.6 0.4c-1.8 0.6-2.4 1.6-2.3 3.4 0.1 1.4 0.9 2.8 1.7 3.1 0.8 0.2 11.6 0.5 24 0.5h22.5v-8c-33.7 0-44.6 0.5-45.9 1zm53.9 3v4h48v-8h-48zm56.4-1.3c0.4 1.5 1.2 3.2 1.7 3.8 0.6 0.5 9.8 1.1 22.5 1.2l21.4 0.3v-8h-46.3zm54.6 1.2v4c42.6 0 55.7-0.2 56.5-0.5 0.9-0.3 1.5-1.8 1.5-4v-3.5h-58zm67-0.5v3.5h49v-7h-49zm55 0v3.5h48v-7h-48zm52 0v3.5h50v-7h-50zm55 0v3.5h48v-7h-48zm54 0v3.5h48v-7h-48zm53 0v3.5h52v-7h-52zm59 0v3.5h40v-7h-40zm47 0v3.5h29v-7h-29zm35 0v3.5h28v-7h-28zm35 0v3.5h35v-7h-35zm43 0v3.5h34v-7h-34zm40 0v3.5h34v-7h-34zm43 0v3.5h27v-7h-27zm34 0v3.5h25v-7h-25zm32 0v3.5h31v-7h-31zm39 0v3.5c12.8-0.1 18.8-0.5 21.7-0.8 2.8-0.4 5.8-1.3 6.5-2 1.1-1.1 0.9-1.6-0.7-2.8-1.5-1.1-5.2-1.4-14.8-1.4h-12.7zm-3227 1v3.5h35v-7h-35zm41 0v3.5h59v-7h-59zm68 0v3.5h45v-7h-45zm53 0v3.5h36v-7h-36zm41 0v3.5h44v-7h-44zm51 0v3.5h60v-7h-60zm66 0v3.5h57v-7h-57zm68 0v3.5h40v-7h-40zm53 0v3.5h47v-7h-47zm53 0v3.5h48v-7h-48zm59 0v3.5c40.2-0.4 52.1-0.7 52.5-1 0.4-0.3 0.4-1.7 0.1-3.2l-0.6-2.8h-52zm1029 0v3.5h45v-7h-45zm60 0v3.5h35v-7h-35zm41 0v3.5h59v-7h-59zm68 0v3.5h45v-7h-45zm53 0v3.5h36v-7h-36zm41 0v3.5h44v-7h-44zm51 0v3.5h60v-7h-60zm66 0v3.5h57v-7h-57zm68 0v3.5h40v-7h-40zm53 0v3.5h47v-7h-47zm53 0v3.5h48v-7h-48zm1698.5 8.6c-8.8 2.2-16.5 4.4-17 4.9q-1 1 0.2 3.5c1.2 2.3 1.8 2.5 8 2.5 3.8 0 11.3-1.1 17-2.5 5.7-1.4 11.2-2.9 12.3-3.5 1.1-0.5 2-1.9 2-3 0-1.1-0.5-2.9-1-4-0.6-1.1-2-2-3.3-1.9-1.2 0-9.4 1.8-18.2 4zm-346.5-1.6c-4.1 0.7-10 1.7-13 2.3-3 0.6-6.1 1.7-6.8 2.4-1 1-0.8 1.8 0.8 4.1 1.5 2 2.8 2.7 5.5 2.7 1.9 0 8.3-0.9 14.2-2.1 6-1.1 11.6-2.5 12.5-3 1-0.5 1.8-1.6 1.8-2.4 0-0.8-1.2-2.4-2.8-3.5-1.5-1.2-3.2-2-3.7-1.9-0.6 0-4.4 0.7-8.5 1.4zm-64.9 1.3c-0.7 1.2-1.2 2.8-1.2 3.6 0.1 0.9 1 2.1 2.1 2.6 1.1 0.6 6.2 1.7 11.2 2.5 5.1 0.8 11.2 1.5 13.5 1.5 4 0 4.3-0.2 4.3-2.7 0.1-1.6-0.5-3.3-1.2-3.9-0.7-0.6-5.8-1.8-11.3-2.7-5.5-0.9-11.4-1.9-13.1-2.3-2.5-0.5-3.3-0.2-4.3 1.4zm339.2 1.4c-0.6 0.7-1.5 2.8-2.2 4.6-0.9 2.5-0.8 3.4 0.1 4.2 0.7 0.6 9.3 1.8 19 2.8 13.2 1.2 18.3 1.4 19.5 0.6 1.1-0.7 1.9-2.6 2.1-5l0.3-3.9c-16.7-1.2-24.5-2-28.1-2.6-3.6-0.5-7.2-1.2-8.1-1.5-0.9-0.2-2.1 0.1-2.6 0.8z"/></svg>