<svg version="1.2" xmlns="http://www.w3.org/2000/svg" viewBox="0 0 363 186" width="363" height="186"><style>.a{opacity:1}</style><path fill-rule="evenodd" class="a" d="m346.3 0.1c3-0.1 6.2 0.7 8.9 2.1 2.4 1.2 5.1 3.1 6 4.2 1 1.2 1.8 2.8 1.8 3.6 0 0.8-1.3 3.6-3 6.3-1.9 2.9-5.2 6.1-8.8 8.4-3.1 2-10 5.6-15.2 8.1-5.2 2.4-11.1 5.2-13 6.2-1.9 1-8.7 3.9-15 6.4-6.3 2.5-11.8 4.6-12.3 4.6-0.4 0-11.8 5.2-25.5 11.6-13.6 6.4-32.6 15.1-42.2 19.4-9.6 4.3-29.2 13.3-43.5 20-14.3 6.7-42.9 20.1-63.5 29.7-20.6 9.6-41.8 19.4-47 21.8-5.2 2.4-13.3 6.1-18 8.2-4.7 2.2-18 8.4-29.5 13.8-11.5 5.4-21.5 10.1-22 10.5-0.5 0.5-1.8 0.5-2.8 0.2-1-0.4-1.7-1.4-1.5-2.2 0.2-0.8 8.6-6.8 18.8-13.2 10.2-6.5 25.9-16.3 35-21.7 9.1-5.4 26-15.3 37.5-21.8 11.5-6.6 27.5-15.6 35.5-20 8-4.4 21.5-11.8 30-16.5 8.5-4.7 20.9-11.3 27.5-14.8 6.6-3.5 18.1-9.5 25.5-13.5 7.4-4 31-16.1 52.5-27 21.5-10.9 40.6-20.8 42.5-22.1 1.9-1.2 8.7-3.8 15-5.8 6.3-1.9 13.7-4.2 16.5-5 2.7-0.7 7.1-1.4 9.7-1.5zm-21.3 16.8c-5.2 1.8-12.8 4.9-16.9 6.8-4.1 1.9-11.5 5.8-16.5 8.7-5 3-9.6 6.1-10.4 7.1-1.3 1.7-1.1 1.8 3.5 1 2.7-0.4 9.4-2.4 14.9-4.5 5.5-2 15.4-6.3 22-9.5 6.6-3.2 14.4-7.3 17.2-9.2 2.9-1.8 5.3-3.8 5.3-4.3 0-0.5-1.5-0.9-3.3-0.9-1.7 0.1-3.9 0.4-4.8 0.7-0.9 0.4-5.9 2.2-11 4.1z"/></svg>