<svg version="1.2" xmlns="http://www.w3.org/2000/svg" viewBox="0 0 5189 456" width="5189" height="456"><style></style><path fill-rule="evenodd" d="m105.8 0.6c-1.2 0.2-7.9 0.7-14.8 1.3-7 0.6-17.9 1.9-24.3 2.9-6.5 1-16 2.8-21.2 4-5.2 1.2-9.9 2.5-10.3 2.9-0.5 0.4-3.2 1.4-5.9 2.2-2.7 0.8-8 3.3-11.7 5.4-3.7 2.2-8.4 5.8-10.3 8-2 2.2-4.4 5.5-5.2 7.3-1.3 2.8-1.6 5.9-1.6 19.5 0 14 0.2 16.7 1.7 19.6 0.9 1.8 3.8 5.2 6.5 7.4 2.7 2.3 5.9 4.6 7.1 5.2 1.2 0.7 3.2 1.9 4.3 2.7 1.9 1.5 2 2.3 2.5 15.5 0.2 7.7 0.3 15 0.3 16.2-0.1 1.2-0.2 5.1-0.1 8.5 0 3.5 0 7.8 0.1 9.5 0 1.7 0 10.2 0 18.9 0 8.7 0 21.8 0.1 29.2 0 7.5-0.2 15.8-0.6 18.5-0.4 3.5-0.1 6.2 0.9 9 1.1 3.2 1.2 4.8 0.4 7.6-0.5 2.2-0.7 6.5-0.3 10.4 0.4 3.7 0.5 8 0.4 9.5-0.1 1.4-0.2 5.6-0.3 9.2 0 4.9-0.4 6.6-1.4 7-0.7 0.3-3.6 2.2-6.3 4.3-2.8 2.1-6.6 5.6-8.5 7.8-1.8 2.2-4.1 5.9-5 8.1-1.4 3.4-1.7 6.7-1.7 20.5-0.1 13.8 0.1 16.9 1.5 19.8 0.8 1.8 2 3.8 2.5 4.3 0.5 0.4 1.1 1.3 1.3 1.8 0.3 0.5 2.5 2.6 5 4.6 2.4 2.1 7.7 5.5 11.7 7.5 3.9 2.1 9.4 4.6 12.1 5.5 2.7 1 7.2 2.4 9.9 3.2 2.7 0.7 8.8 2.3 13.5 3.5 4.7 1.2 11.6 2.6 15.3 3.1 3.7 0.4 12 1.3 18.5 2 6.4 0.6 19.8 1.1 29.7 1 10.5 0 22.4-0.7 28.8-1.5l10.8-1.4c5.9-6.4 7.6-8.6 7.6-9.1 0-0.5-1.5-0.9-3.4-0.9-1.8 0-7.6 0.7-12.8 1.5-6.6 1-15.6 1.5-29.7 1.5-14.6 0.1-23.7-0.4-32.4-1.5-6.7-0.9-15.4-2.2-19.3-3-4-0.7-7.6-1.5-7.9-1.7-0.4-0.2-0.7-2.9-0.7-6 0-3.1 0.1-5.9 0.4-6.1 0.2-0.2 3.6 0.1 7.4 0.7 3.9 0.6 12.5 1.8 19.2 2.6 8.5 1.1 19.2 1.5 35.6 1.6 17.3 0 26.3-0.4 34.6-1.6 6.2-0.8 14.9-2.5 19.4-3.6 4.4-1.2 10.7-3.2 13.9-4.4 3.2-1.2 8.3-3.4 11.2-4.8 3-1.4 6.1-3 6.8-3.6 0.7-0.6 2.1-1.3 2.9-1.6 0.9-0.3 1.6-0.4 1.6-0.2 0 0.3-3.5 2.8-7.9 5.6-4.3 2.8-9.9 6.4-12.4 8.1-2.4 1.6-6.3 4.3-8.5 5.9-2.3 1.6-5.1 3.8-6.3 4.8-1.1 0.9-4.3 3.8-7.1 6.2-2.8 2.5-6.8 6.5-8.9 9-2.2 2.5-5.5 7.9-7.5 12-3 6.4-3.5 8.2-3.5 13.7 0 4.5 0.5 7.3 1.8 9.9 1 2 3.1 4.6 4.7 5.8 1.6 1.2 4.6 2.8 6.6 3.5 1.9 0.7 6.2 1.6 9.4 1.9 4.3 0.4 8.8 0.1 16.7-1.3 5.9-1.1 14-2.3 18-2.8 3.9-0.4 8.1-1 9.2-1.2 1.1-0.3 2-1.1 2-1.9 0-0.7-1.1-2-2.4-2.9-2-1.2-4.3-1.5-11.5-1.5-5 0.1-12.5 0.8-16.7 1.6-4.2 0.9-9.9 1.5-12.6 1.5-2.7-0.1-6.6-0.7-8.5-1.4-2-0.7-4.4-2-5.2-2.9-0.9-0.8-1.9-3.2-2.2-5.2-0.3-1.9-0.1-5.4 0.3-7.6 0.5-2.2 2.3-6.3 4.1-9 1.8-2.7 6-7.8 9.3-11.3 3.4-3.4 6.2-5.7 6.4-5.1 0.2 0.6 1.2 1.1 2.3 1.1 1.1 0 5.3-0.8 9.3-1.8 3.9-1 9.2-2.5 11.7-3.3 2.4-0.8 7.3-2.9 10.8-4.6 3.4-1.7 8.3-4.6 10.8-6.3 2.4-1.8 6-4.9 7.9-6.9 1.9-2 4.4-5.5 5.5-7.7 1.1-2.2 2.3-5.2 2.6-6.5 0.3-1.4 2.1-4.6 4-7.2 1.8-2.6 4.8-8.2 6.6-12.4 1.8-4.2 4-10.1 4.8-13.1 1-3.3 1.7-10.4 2-18.8 0.4-8.7 0.2-15.8-0.5-19.9-0.6-3.4-2.4-9.1-3.9-12.6-1.6-3.4-4.1-8.1-5.6-10.3-1.5-2.2-5.4-6.6-8.6-9.8-3.2-3.2-8.8-7.7-12.4-10.1-3.6-2.4-6.8-4.4-7.2-4.4-0.3 0-0.5-5.6-0.4-12.4 0.2-6.8 0.3-14.2 0.4-16.4 0-2.2 0-6.1-0.1-8.6 0-2.4 0-6.6-0.1-9.2 0-2.6 0-6.1 0-7.9 0-1.7 0-5.9 0-9.4 0-3.5 0-7.7 0-9.5 0-1.7 0.1-5.6 0.1-8.7 0.1-3.1 0.1-6.5 0-7.5-0.1-0.9 0.1-4.2 0.4-7.2 0.6-5.2 0.7-5.4 4.7-7.6 2.3-1.2 5.6-3.4 7.3-4.8 1.8-1.5 4.7-4.5 6.4-6.8l3.2-4.2c0-32.7-0.3-37.4-1.3-39.1-0.7-1.2-1.8-2.8-2.3-3.5-0.5-0.6-1.8-2-2.8-3.1-1-1.1-2.9-2.8-4.1-3.8-1.3-0.9-3.1-2.3-4-2.9-1-0.6-3.8-2.1-6.2-3.2-2.5-1.2-7.6-3.2-11.3-4.5-3.7-1.3-9.2-2.9-12.1-3.7-3-0.7-9.9-2.2-15.3-3.2-5.5-1.1-14.2-2.3-19.4-2.8-5.2-0.5-14.7-1.2-21.1-1.7-6.5-0.5-17.4-0.8-24.3-0.7-7 0-13.7 0.2-14.9 0.3zm-16.6 10.8c6.9-0.6 23-1.2 35.7-1.3 15.3-0.1 27.7 0.4 36.5 1.3 7.3 0.7 17.5 2.2 22.7 3.2 5.2 1 13.1 2.8 17.6 4.1 4.4 1.3 10.4 3.3 13.2 4.5 2.9 1.1 7.2 3.4 9.6 5 2.4 1.6 5.2 4 6.2 5.2 1 1.2 2 3.2 2.3 4.3 0.3 1.1 0 3.4-0.7 5.1-0.8 1.8-3.5 4.9-6.1 6.9-2.6 2-7.8 5.2-11.5 7-3.7 1.9-11.6 4.8-17.5 6.6-6 1.8-12.9 3.7-15.4 4.2-2.4 0.6-8.7 1.7-13.9 2.5-7.5 1.1-16.9 1.5-45 1.5-30.1 0.1-37-0.1-45-1.5-5.2-0.9-12.3-2.1-15.7-2.8-3.5-0.8-10.4-2.5-15.4-3.9-4.9-1.4-12.2-4.2-16.1-6.1-4-1.9-9.2-5.2-11.6-7.1-2.6-2.3-4.6-4.8-5.2-6.8-0.5-1.7-0.7-4.2-0.4-5.4 0.3-1.2 1.5-3.3 2.6-4.5 1.1-1.3 3.8-3.5 6-5 2.2-1.5 6.7-3.8 9.9-5.2 3.2-1.3 6.4-2.4 7-2.4 0.6 0 4.2-1 8.1-2.2 3.8-1.1 12-3 18.2-4 6.2-1.1 16.9-2.5 23.9-3.2zm142.5 43.4c3.7-3.9 3.9-4 4.8-2.2 0.5 1.1 0.7 4.6 0.5 7.8-0.3 4-1.1 7.1-2.6 9.7-1.2 2.1-2.7 4-3.3 4.3-0.8 0.3-1.1-1.2-1.1-5.9 0-4.1-0.4-6.5-1.1-6.9-0.6-0.3-2 0.4-2.9 1.4-1.5 1.5-1.9 3.4-2.1 8.7-0.1 3.7-0.6 6.7-1.1 6.7-0.5 0-0.9-2.7-0.9-6.3 0-3.5-0.3-6.3-0.7-6.3-0.3 0-2 0.9-3.6 1.8-2.8 1.7-2.9 2-2.9 7.4 0 3.1-0.4 6.3-0.9 7-0.6 0.9-0.9-0.5-0.9-4.7 0-5.2-0.2-6.1-1.6-6.1-0.8 0-2.4 0.5-3.3 1.2-1 0.7-5.3 2.3-9.5 3.6-4.2 1.3-11.7 3.1-16.6 4.1-5 1-18.2 2.7-29.3 3.8-11.1 1-20.5 2-20.7 2.2-0.2 0.2-0.1 0.7 0.3 1.1 0.4 0.3 10.1 0.6 21.6 0.6 12.2 0 24.6-0.4 29.9-1.1 4.9-0.7 11.4-1.8 14.4-2.6 2.9-0.7 5.6-1 5.8-0.7 0.2 0.3-0.4 1.1-1.3 1.8-1 0.7-4.5 2.1-7.7 3-3.2 1-11.1 2.8-17.5 4.2-6.5 1.3-15.6 2.8-20.3 3.2-4.7 0.5-14.8 1.2-22.5 1.7-8 0.4-20.4 0.4-29.2-0.1-8.5-0.4-19.1-1.2-23.7-1.7-4.6-0.5-10.2-1.3-12.6-1.9-2.3-0.5-4.8-1.4-5.4-2-0.8-0.7-1.2-3.3-1.1-7.6 0-3.6 0.4-6.7 0.9-7 0.5-0.2 4.7 0.1 9.3 0.9 4.5 0.7 16.8 2 27.2 2.8 15.6 1.2 21.8 1.3 36 0.5 9.4-0.5 22.9-1.8 30.1-2.8 7.2-1 15.1-2.3 17.6-2.8 2.4-0.6 8.5-2.2 13.5-3.6 4.9-1.5 11.6-3.7 14.8-5 3.2-1.3 6.5-2.9 7.2-3.5 0.7-0.6 3-1.9 5-2.9 1.9-1 5.3-3.6 7.5-5.8zm-220.2 7.8c-0.2-6.6-0.1-7.8 0.9-6.9 0.7 0.7 1.3 4.2 1.5 8.6 0.3 6 0.2 7.3-0.9 6.8-0.9-0.4-1.3-2.7-1.5-8.5zm21.4 20.3c-0.5 0-0.9-3-0.9-6.8 0-3.7 0.4-6.7 0.9-6.7 0.5 0 0.9 3 0.9 6.7 0 3.8-0.4 6.8-0.9 6.8zm9.9 3.6c-0.5 0-0.9-3.4-0.9-7.7 0-4.2 0.4-7.6 0.9-7.6 0.5 0 0.9 3.4 0.9 7.6 0 4.3-0.4 7.7-0.9 7.7zm9-4.1c0-7 0.1-7.6 1.8-7.6 1.7 0 1.8 0.6 1.8 8.1 0 7.6-0.1 8.1-1.8 7.6-1.6-0.4-1.8-1.1-1.8-8.1zm148.9 19.3c1-0.4 2-0.7 2.3-0.7 0.2-0.1 0 0.2-0.5 0.7-0.5 0.4-4 2.8-7.8 5.4-3.9 2.5-7.3 4.6-7.7 4.6-0.3 0-2.9 1.5-5.6 3.4-2.7 1.8-10.4 6.1-17.1 9.5-6.7 3.4-17 8.2-23 10.7-5.9 2.4-15.4 6.1-21.1 8.3-5.7 2.1-16.2 5.7-23.4 7.9-7.2 2.3-17.7 5.4-23.4 6.9-5.7 1.5-12.3 3.3-14.6 3.9-2.3 0.6-4.5 0.9-4.7 0.7-0.3-0.2 2-1.4 5.1-2.6 3.1-1.2 10.1-3.9 15.5-6 5.5-2.1 11.1-4.2 12.5-4.6 1.5-0.4 2.8-1.1 3-1.4 0.2-0.4 1.2-0.7 2.4-0.7 1.1 0 2.4-0.4 2.9-0.8 0.5-0.5 3.1-1.7 5.8-2.8 2.7-1.1 6.4-2.5 8.1-3.2 1.7-0.6 6.6-2.5 10.8-4.3 4.2-1.7 9.9-3.8 12.6-4.7 2.7-0.9 5.8-2.1 6.7-2.7 1-0.6 3.5-1.6 5.4-2.2 2-0.6 4.9-1.6 6.3-2.3 1.5-0.6 6.2-2.6 10.4-4.5 4.2-1.8 14.3-6.6 22.5-10.6 8.2-4 15.7-7.6 16.6-7.9zm-162.4 5.5c-1.2-1-2-1.8-1.8-1.8 0.2 0 6.9 3.2 14.8 7.3 8 4 17.1 8.6 20.3 10.2 3.2 1.6 9.7 4.7 14.4 6.8 4.7 2.1 10 4.3 11.7 4.9 3.1 0.9 3.1 1-2.3 1.2-4.5 0.3-6.5-0.2-12.6-2.8-3.9-1.7-10.2-4.7-13.9-6.7-3.7-1.9-8.6-4.6-10.8-5.8-2.2-1.2-7.1-4.3-10.8-6.8-3.7-2.6-7.8-5.5-9-6.5zm165.5 3.9c4.7-3.1 8.6-5.5 8.7-5.3 0 0.2 0 1.2-0.2 2.2-0.2 1.1-1.9 2.9-3.9 4.1-2 1.3-3.8 2.7-4.1 3.2-0.2 0.5-3.5 3-7.3 5.6-3.7 2.6-7.5 5.2-8.3 5.6-0.8 0.5-3.5 2.2-6 3.8-2.4 1.6-10.5 5.9-18 9.6-7.4 3.7-17.1 8.3-21.6 10.1-4.4 1.8-9.3 3.8-10.8 4.5-1.4 0.6-3.5 1.3-4.4 1.6-1 0.2-5.9 1.8-10.9 3.5-4.9 1.8-13.2 4.4-18.4 5.9-5.2 1.5-14.1 3.8-19.8 5.1-5.7 1.3-11 2.2-11.7 1.8-0.9-0.4-0.2-0.9 2.2-1.7 2-0.7 9.3-3 16.2-5.3 7-2.2 16.5-5.5 21.2-7.2 4.7-1.7 11.8-4.4 15.7-6 4-1.6 8-3.2 8.8-3.7 0.9-0.4 2-0.8 2.5-0.8 0.5 0 3-1 5.6-2.2 2.6-1.2 6.8-3 9.3-4.1 2.4-1.1 8.9-4.2 14.4-6.8 5.4-2.7 10.9-5.5 12.1-6.1 1.2-0.7 6.3-3.7 11.2-6.6 5-2.9 12.9-7.7 17.5-10.8zm-46.7 0.2c3.7-0.7 7.4-1.2 8.1-1.3 0.7 0-0.7 0.8-3.1 1.7-2.5 0.8-7.6 2.7-11.3 4-6.1 2.2-7.5 2.4-14.8 1.9-4.5-0.3-11-1.3-20.8-3.9l7.7 0.5c4.2 0.2 12.1 0 17.6-0.6 5.4-0.6 12.9-1.6 16.6-2.3zm-71.6 5.3c-3.4-1.7-5.2-2.9-4-2.6 1.2 0.3 4.5 1.1 7.2 1.9 2.7 0.8 6.6 1.7 8.5 2.1 2 0.4 7.9 1.7 13.1 3.1 5.2 1.3 11.2 2.9 13.2 3.5 2.3 0.6 3.4 1.3 2.7 1.7-0.6 0.4-3.6 0.7-6.7 0.7-4.2 0-8.4-0.9-16.6-3.7-6.1-2-13.9-5-17.4-6.7zm124.2 5.5c1.5-1.2 3.1-2.2 3.4-2.3 0.4 0 0.7 0.4 0.7 0.9 0 0.5-2.1 3.1-4.7 5.7-2.6 2.6-8.6 7.6-13.3 11-4.7 3.4-9.4 6.8-10.4 7.4-1 0.6-3.2 1.9-4.9 2.9-1.7 1-5 2.9-7.2 4.2-2.2 1.3-7.2 3.9-11 5.8-3.9 1.9-7.2 3.5-7.5 3.5-0.2 0-2.9 1.2-6 2.6-3.1 1.5-11.3 4.7-18.3 7.3-6.9 2.6-16.4 5.6-21.1 6.7-4.7 1.1-10.8 2.7-13.5 3.5-2.7 0.7-6.8 1.6-9 1.9-3.8 0.5-3.9 0.5-2.3-0.8 1-0.8 5.3-2.5 9.5-3.7 4.2-1.3 11.9-3.9 17.1-5.8 5.2-1.9 11.7-4.3 14.4-5.3 2.7-1 9.2-3.6 14.4-5.8 5.2-2.1 14.7-6.5 21.1-9.8 6.5-3.2 15.2-7.8 19.4-10.3 4.2-2.5 10.6-6.5 14.3-8.9 3.6-2.5 7.9-5.3 9.4-6.4 1.6-1.1 4.1-3 5.5-4.3zm-170.5 3.1c-1.7-1.5-2.5-2.5-1.6-2.2 0.8 0.3 1.5 1 1.6 1.4 0 0.4 0.9 1 2 1.4 1.1 0.3 3.3 1.4 4.7 2.5 1.5 1.1 7.4 4.4 13.1 7.3 5.7 2.8 11.8 5.9 13.5 6.7 2.6 1.2 2.9 1.6 1.6 2.1-0.9 0.3-2.7 0.2-4.1-0.2-1.3-0.5-4.1-1.5-6.1-2.4-1.9-0.8-7-3.8-11.2-6.6-4.2-2.8-8.3-5.6-9-6.1-0.7-0.6-2.8-2.4-4.5-3.9zm170 12.9c2.2-2.1 4.1-3.6 4.2-3.4 0.1 0.2 0.1 1.3-0.1 2.6-0.2 1.3-2.3 4.1-4.7 6.3-2.3 2.1-6.5 5.7-9.2 7.9-2.7 2.2-7.5 5.7-10.6 7.7-3.1 2.1-5.9 3.8-6.3 3.8-0.3 0-1.3 0.6-2 1.3-0.7 0.6-3.6 2.4-6.3 3.9-2.7 1.5-8.2 4.3-12.2 6.4-3.9 2-7.5 3.7-7.8 3.7-0.4 0-3.7 1.4-7.5 3.1-3.7 1.8-7 3.2-7.4 3.2-0.3 0-5.1 1.7-10.6 3.7-5.4 1.9-13.1 4.2-17.1 4.9-3.9 0.7-8.6 1.3-10.3 1.3-1.7 0-3.8-0.4-4.5-0.8-1-0.6-0.1-1.1 3.1-1.8 2.5-0.6 7.8-2.1 11.7-3.2 4-1.2 9.9-3.1 13.1-4.1 3.2-1.1 10.9-4.1 17.1-6.5 6.2-2.5 15.1-6.4 19.8-8.7 4.7-2.4 11-5.6 13.9-7.3 3-1.6 8.5-5 12.2-7.5 3.7-2.4 7.8-5.2 9-6.2 1.2-0.9 3.7-2.8 5.4-4.1 1.7-1.3 4.9-4.1 7.1-6.2zm2.6 14.8c0.2-0.4 0.5-0.7 0.7-0.7 0.2 0 0.4 0.8 0.4 1.8 0 1-2.1 4.1-4.7 6.8-2.6 2.8-8 7.5-12 10.6-3.9 3-10.4 7.4-14.4 9.8-3.9 2.4-10.8 6.2-15.3 8.3-4.4 2.2-10.8 5.2-14.1 6.7-3.4 1.6-9.8 4-14.4 5.5-4.9 1.5-10.3 2.7-13.1 2.7-2.6 0-4.9-0.4-5.2-0.9-0.2-0.5 0.4-0.9 1.4-0.9 1 0 2-0.3 2.1-0.7 0.2-0.3 3-1.4 6.1-2.3 3.2-1 10.2-3.7 15.6-6.1 5.5-2.5 13.4-6.2 17.6-8.3 4.2-2.2 10.9-5.7 14.8-7.8 4-2.2 11.1-6.5 15.8-9.7 4.7-3.2 10.8-7.7 13.5-10 2.7-2.3 5.1-4.5 5.2-4.8zm-178.2 4c-0.3-1.1-0.3-2-0.1-2 0.1 0 3.5 3.1 7.4 7 3.9 3.8 8.4 8.2 10.1 9.7 1.7 1.5 5.5 4.6 8.4 6.9 3 2.3 7.3 5.6 9.5 7.2 2.2 1.7 6.6 4.5 9.7 6.4 3.1 1.8 5.9 3.3 6.3 3.3 0.3 0 1.3 0.6 2 1.3 0.7 0.7 6.6 3.9 13 7.1 6.5 3.2 14.1 6.9 16.9 8.1 2.9 1.3 7.3 3.4 9.9 4.6 2.6 1.2 8.6 3.6 13.3 5.4 4.7 1.9 9.8 3.9 11.2 4.6 1.5 0.6 6.4 2.5 10.8 4.1 4.5 1.6 11.6 4 15.8 5.4 4.2 1.3 11.1 3.3 15.3 4.3 4.2 1 10.2 1.9 13.3 1.9 4.4 0 5.6 0.3 5.6 1.3 0 0.8-0.6 1.6-1.4 1.8-0.7 0.3-2.7 0.5-4.5 0.5-1.7 0-8.1-0.8-14.1-1.8-6.1-1-14.7-2.8-19.2-4.1-4.4-1.3-11.5-3.5-15.7-4.9-4.2-1.4-10.9-3.8-14.9-5.4-3.9-1.5-8-3.2-9-3.6-0.9-0.4-7.2-3.4-13.9-6.7-6.7-3.2-15.2-7.5-18.9-9.6-3.7-2.1-11.4-6.8-17.1-10.6-5.7-3.7-13.4-9.1-17.1-12-3.7-2.9-9-6.9-11.7-9-2.7-2-8.4-7.2-12.7-11.4-4.2-4.3-7.9-8.7-8.2-9.8zm174.8 16.8c2.2-2.2 4.1-3.9 4.2-3.8 0.1 0.1 0 1.1-0.2 2.3-0.2 1.1-2.5 4.2-5.1 6.7-2.6 2.6-6.6 6.2-8.8 8-2.2 1.8-4.8 3.8-5.6 4.5-0.9 0.7-1.8 1.3-2.1 1.3-0.2 0-2.8 1.6-5.8 3.6-3 2-5.6 3.6-5.9 3.6-0.2 0-3.1 1.5-6.5 3.4-3.3 1.8-8.7 4.3-11.9 5.4-3.2 1.2-7.9 2.7-10.4 3.4-2.4 0.7-5.5 1.3-6.7 1.3-1.2 0-2.8-0.3-3.4-0.7-0.6-0.4 1.9-1.7 6.3-3.3 4.1-1.4 10.5-4 14.2-5.7 3.7-1.7 8.4-3.9 10.3-4.8 2-0.9 4.3-2.1 5-2.6 0.7-0.5 4.6-2.8 8.5-5.1 4-2.3 10.1-6.3 13.5-8.9 3.5-2.6 8.2-6.5 10.4-8.6zm-174.6 1.2c0-0.6 0.4-1.1 0.9-1.1 0.5 0 3.8 2.4 7.4 5.4 3.6 2.9 7.4 6.1 8.3 7 1 0.9 3.1 2.4 4.5 3.4 1.5 0.9 4.8 3.3 7.2 5.4 2.5 2 6.9 5.2 9.7 7.2 2.9 1.9 5.9 4 6.8 4.4 0.8 0.5 3.5 2.3 5.8 3.9 2.4 1.6 4.5 2.9 4.7 2.9 0.3 0 2 1 3.9 2.1 1.8 1.2 7.8 4.4 13.2 7.2 5.5 2.7 12.6 6.2 15.8 7.6 3.2 1.4 9.5 4.1 13.9 5.9 4.5 1.8 12.8 4.8 18.5 6.8 5.7 2 15.2 4.8 21.1 6.3 6 1.5 14 3.3 17.8 4.1 3.9 0.8 9 1.4 11.5 1.4 2.5 0 5.1 0.2 5.8 0.4 0.8 0.3 1.4 0.9 1.4 1.4 0 0.5-3.8 0.9-9.5 0.9-5.6 0-13.7-0.8-20-1.9-5.8-1-15-3-20.5-4.4-5.4-1.4-15.7-4.9-22.9-7.7-7.2-2.8-14.1-5.6-15.3-6.2-1.2-0.7-7.5-3.8-14-6.9-6.4-3.1-14.4-7.4-17.7-9.5-3.4-2.1-6.3-3.9-6.6-3.9-0.2 0-3.7-2.3-7.8-5.1-4.1-2.8-11.6-8.1-16.8-11.9-5.1-3.8-13.3-10.7-18.2-15.4-4.9-4.7-9-9.1-8.9-9.7zm172.3 17.8c3.5-3.5 6.6-6.3 6.9-6.3 0.3 0 0.4 0.6 0.2 1.3-0.1 0.8-0.3 1.8-0.3 2.3 0 0.5-2.5 3.4-5.6 6.5-3.1 3.1-6.9 6.7-8.4 7.9-1.4 1.2-5.1 3.8-8.1 5.7-2.9 2-7.6 4.7-10.3 6-2.7 1.4-6.6 3.2-8.6 4-1.9 0.8-4.6 1.4-5.8 1.4-1.2 0-2.9-0.4-3.6-0.9-1.1-0.6-0.6-1.1 2.2-2.3 2-0.8 6.1-2.7 9-4.1 3-1.4 7.7-3.8 10.4-5.3 2.7-1.5 7.1-4.3 9.7-6.3 2.6-2 5-3.6 5.4-3.6 0.3 0 3.5-2.8 6.9-6.3zm-173.2-1.1c0-0.4 0.2-0.7 0.4-0.7 0.3 0 3.6 2.6 7.5 5.7 3.8 3.2 10.1 7.9 14 10.6 3.9 2.7 8 5.4 9 6.1 1.1 0.7 3.6 2.4 5.5 3.7 2 1.4 7.1 4.4 11.3 6.8 4.2 2.3 11.8 6.4 16.9 9.1 5 2.6 13.4 6.7 18.4 8.9 5.1 2.3 10.9 5 12.8 5.9 2 1 4 1.7 4.3 1.7 0.4 0 2.8 1 5.4 2.2 2.6 1.3 8.4 3.5 12.8 5 4.5 1.6 11 3.6 14.4 4.6 3.5 1 8.6 2.2 11.3 2.6 2.7 0.5 7.8 1.2 11.2 1.7 3.5 0.5 10.3 1 15.1 1 6.4 0 8.8 0.3 8.8 1.1 0 0.6-1.3 1.5-2.9 1.8-1.6 0.4-7.8 0.7-13.8 0.7-6.5 0-14.4-0.7-20.2-1.8-5.2-0.9-12.5-2.4-16.2-3.2-3.7-0.8-8.4-2.2-10.4-3.1-1.9-0.9-6.1-2.5-9.2-3.5-3.1-1.1-9.3-3.5-13.9-5.6-4.6-2-11.8-5.3-16-7.3-4.2-2-11.9-6.1-17.1-9.1-5.2-3-11.2-6.4-13.3-7.7-2.2-1.3-4.6-2.8-5.4-3.3-0.9-0.5-2.8-1.7-4.3-2.7-1.4-0.9-3.1-2-3.6-2.4-0.4-0.4-4.9-3.6-9.9-7.2-4.9-3.6-10.6-8-12.6-9.9-1.9-1.9-3.9-3.4-4.2-3.4-0.4 0-1.9-1.7-3.4-3.8-1.5-2.1-2.7-4.2-2.7-4.5zm174.1 17.7c3-3.1 5.8-5.6 6.1-5.7 0.4 0 0.7 0.7 0.7 1.7 0 1-0.5 2.7-1.1 3.8-0.6 1-1.8 2.7-2.5 3.6-0.7 1-4.5 4.2-8.3 7.1-3.9 2.9-7.6 5.3-8.4 5.3-0.7 0-1.4 0.5-1.5 1-0.1 0.6-2.4 1.3-5 1.6-2.9 0.3-4.7 0.2-4.7-0.4 0-0.4 2.1-2 4.7-3.3 2.6-1.4 5.8-3.2 7.1-4.1 1.3-0.8 3.5-2.4 4.9-3.4 1.4-0.9 5-4.2 8-7.2zm15.3-2c0.4-0.8 1.3-1 2.6-0.6 1.1 0.3 3.8 2.1 6 3.8 2.2 1.8 5.4 4.4 7.1 6 1.6 1.5 4.5 5 6.3 7.7 1.9 2.7 4.2 7 5.1 9.4 0.9 2.5 1.9 5 2.3 5.4 0.3 0.5 1.1 4.2 1.8 8.1 0.9 5.8 0.9 8.7-0.1 14.4-0.6 4-2.6 10.7-4.4 14.9-1.8 4.2-4.6 9.4-6.2 11.5-1.6 2.1-3.1 3.8-3.4 3.8-0.2 0 0.3-1.3 1.2-2.9 0.9-1.8 1.5-4.8 1.5-7.4-0.1-2.7-0.8-6-1.9-8.2-1.1-1.9-2.9-4.6-4.1-5.8-1.2-1.2-3.2-3.2-4.6-4.3-1.3-1.1-4-2.9-9.4-6.1l-0.4-6.7c-0.2-3.7 0-8.4 0.5-10.4 0.6-2.5 0.6-4.8-0.2-7.8-0.8-3.5-0.7-5.3 0.4-9.5 1.1-4.1 1.1-6 0.3-9.7-0.5-2.4-0.7-5-0.4-5.6zm-189.4 4.1c0-0.4 0.4-0.7 0.9-0.7 0.5 0 1.1 0.4 1.3 0.9 0.3 0.5 4.2 3.7 8.8 7 4.6 3.4 10.5 7.7 13.1 9.5 2.6 1.8 4.9 3.3 5.1 3.3 0.3 0 2.6 1.4 5.2 3 2.6 1.7 6.4 4 8.3 5.1 2 1.1 10.3 5.4 18.5 9.5 8.2 4.2 15.2 7.6 15.5 7.6 0.4 0 3 1.1 5.9 2.4 2.8 1.3 6.4 2.9 7.8 3.5 1.5 0.7 7.4 2.9 13.1 4.9 5.7 2.1 13.2 4.6 16.6 5.5 3.5 1 11 2.8 16.7 4.1 6.3 1.4 14.4 2.5 20.7 2.7 8.3 0.4 10 0.7 8.5 1.5-1 0.6-6 1-12.1 1-5.7-0.1-13.8-0.8-18-1.6-4.2-0.8-9.7-2-12.2-2.7-2.4-0.7-7.9-2.3-12.1-3.6-4.2-1.2-10.7-3.4-14.4-4.7-3.7-1.3-7.2-2.8-7.7-3.2-0.4-0.5-1.6-0.8-2.4-0.8-0.9 0-4.5-1.3-8.1-3-3.6-1.6-8-3.5-9.7-4.2-1.7-0.7-9.4-4.4-17.1-8.3-7.7-3.9-16.4-8.8-19.4-10.8-2.9-2.1-7.2-5-9.4-6.5-2.2-1.5-4.5-3-5-3.4-0.4-0.4-2.1-1.7-3.7-2.8-1.5-1.1-4.7-3.8-7.2-6-2.4-2.3-5.1-5.1-5.9-6.3-0.9-1.2-1.6-2.6-1.6-2.9zm177.3 13.7c1.2-1.4 2.4-2.6 2.5-2.6 0.1-0.1 0.2 0.7 0.2 1.7 0 1-1.5 3.4-3.4 5.4-2.6 2.9-4 3.7-6.3 3.6-1.6 0-2.9-0.4-2.9-0.9 0-0.5 0.5-0.9 1.1-0.9 0.6 0 1.8-0.8 2.6-1.8 0.9-1 2.1-1.8 2.7-1.9 0.7 0 2.3-1.2 3.5-2.6zm-174.6 8.8c0-0.4 0.2-0.7 0.4-0.7 0.3 0 3.8 2.5 7.9 5.6 4.1 3.1 7.7 5.9 7.9 6.1 0.2 0.3 3.3 2.5 6.7 5 3.5 2.5 9.4 6.3 13.1 8.5 3.7 2.2 7 4.2 7.2 4.5 0.2 0.2 2.3 1.4 4.5 2.5 2.2 1.1 6.9 3.6 10.3 5.6 3.5 2 10.2 5.5 14.9 7.9 4.7 2.4 9.4 4.8 10.3 5.4 1 0.5 3.3 1.6 5 2.5 1.7 0.8 5.3 2.2 7.9 3.2 2.6 0.9 4.5 2 4.2 2.4-0.2 0.3-3.2-0.1-6.5-1.1-3.3-0.9-9.1-3-12.8-4.6-3.7-1.6-9.2-4.1-12.2-5.5-2.9-1.5-9.6-5.1-14.8-7.9-5.2-2.9-11.1-6.1-13.1-7.2-1.9-1.1-5.6-3.4-8.1-5.1-2.5-1.7-5.2-3.5-5.9-4-0.8-0.4-3.8-2.5-6.7-4.5-2.8-1.9-8.6-6.8-12.7-10.8-4.2-3.9-7.6-7.5-7.5-7.8zm-1.8 18.6c0-0.2 0.1-0.4 0.2-0.4 0.1-0.1 2.9 2.5 6.1 5.6 3.2 3.2 8.1 7.7 10.9 10.2 2.8 2.4 7.2 6.1 9.8 8 2.6 2 6.2 5 8 6.5 1.8 1.6 3.6 2.9 3.9 3 0.4 0 1.8 0.9 3.2 1.9 1.3 1.1 1.8 1.8 1.1 1.5-0.7-0.3-3.2-1.2-5.4-2.1-2.2-0.9-6.1-2.9-8.6-4.4-2.5-1.5-6.2-4-8.1-5.4-2-1.5-6.6-5.8-10.4-9.5-3.8-3.7-7.7-8.5-8.8-10.6-1-2.1-1.9-4-1.9-4.3zm31.7 16.7c-0.4-0.7 1.6 0.1 4.5 1.8 2.9 1.7 6.8 4.1 8.6 5.2 1.8 1.1 5.2 2.9 7.4 4 2.2 1.1 4.3 2.2 4.5 2.5 0.2 0.4 3.8 2.3 7.9 4.4 4.1 2 7.2 4 6.9 4.4-0.2 0.3-2.5-0.1-5.1-0.9-2.6-0.9-9.2-4.1-14.7-7.2-5.5-3.1-10.6-6.3-11.3-7-0.8-0.7-2.8-2.4-4.6-3.6-1.8-1.2-3.6-2.9-4.1-3.6zm42.2 0.6q-2.4-1.7-0.6-1c1 0.3 6.3 2.2 11.7 4.2 5.5 2 14.4 5.2 19.8 7.2 5.5 1.9 12.8 4.4 16.2 5.4 3.5 1 8.2 2.3 14.4 4.1l-6.7 0.1c-5.1 0.1-8.7-0.5-14.9-2.5-4.4-1.5-9.7-3.3-11.7-4.1-1.9-0.8-4.4-1.8-5.4-2.2-0.9-0.4-5.9-2.7-11.1-5.1-5.1-2.5-10.3-5.2-11.7-6.1zm112.9 2.8c0.3-1.9 0.8-3.4 1.2-3.4 0.3 0 2.3 1.2 4.4 2.7 2.1 1.5 4.5 3.8 5.4 5.1 0.8 1.4 1.5 3.9 1.5 5.7 0 2.1-0.9 4.7-2.4 7-1.4 2.1-4.8 5.6-7.7 7.8-2.8 2.3-8.8 5.9-13.3 8-4.4 2.2-9.9 4.7-12.1 5.6-2.2 0.8-4.9 1.8-5.9 2.3-0.9 0.4-5.2 1.7-9.4 3-4.2 1.2-11.5 3-16.2 4-4.7 0.9-16.7 2.2-26.6 2.9-15.7 1-20.5 0.9-38.2-0.4-11.1-0.8-23.9-2.2-28.4-3.2-4.4-1-11.7-2.6-16.2-3.7-4.4-1.1-9.3-2.5-10.8-3.1-1.4-0.7-4.3-1.7-6.3-2.3-1.9-0.7-6.2-2.5-9.4-4.2-3.2-1.6-7.9-4.5-10.4-6.4-2.4-1.9-5.4-5.1-6.5-7.2-1.1-2.1-1.9-4.5-1.7-5.4 0.2-1.1 0.8-0.5 2.2 2 1.2 2.4 3.8 4.9 7.6 7.4 3.1 2.1 7.5 4.3 9.7 4.9 2.2 0.6 4.5 1.4 4.9 1.9 0.5 0.4 2.1 0.7 3.4 0.7 1.4 0 2.5-0.3 2.5-0.7 0.1-0.3-2.6-2.1-5.9-3.8-3.3-1.7-7.9-5-10.3-7.2-2.4-2.2-4.8-5-5.3-6.1-0.6-1.1-0.8-2.3-0.5-2.7 0.2-0.3 0.4-0.2 0.4 0.2-0.1 0.5 1.7 2.7 3.8 4.8 2.2 2.2 7.1 5.4 11.5 7.5 4.2 2.1 9.3 4 11.2 4.3 2.2 0.3 3.4 0.1 3.1-0.4-0.3-0.5-3.1-2.3-6.3-4.1-3.2-1.9-6.6-4.1-7.7-5-1-0.9-3.1-2.7-4.5-3.9-1.5-1.2-3-3.1-3.3-4.1-0.5-1.3-0.2-1.2 1.4 0.7 1.1 1.3 4.5 3.9 7.4 5.8 3 1.9 8.3 4.3 11.7 5.4 3.5 1 8.8 2.6 11.7 3.5 3 0.8 11.7 2.5 19.4 3.8 12.7 2 16.5 2.3 42.3 2.3 19.4 0.1 30.8-0.3 36-1.1 4.2-0.6 10.7-1.7 14.4-2.4 3.7-0.7 9.6-2.2 13-3.2 3.5-1 8.4-2.7 10.8-3.7 2.5-1 7.4-3.5 10.8-5.7 3.8-2.3 7.7-5.6 9.6-8.2 1.9-2.4 3.6-5.9 4-7.7zm15.2 31.1c3.5-3.5 6.5-6.4 6.6-6.5 0.1-0.1 0.2 0.2 0.2 0.6 0 0.3-1.9 2.9-4.3 5.6-2.3 2.7-6.1 6.7-8.3 8.9-2.2 2.1-5.5 5-7.2 6.4-1.7 1.4-5 3.9-7.2 5.6-2.2 1.7-6.9 4.9-10.4 7.1-3.4 2.3-8.7 5.7-11.7 7.5-2.9 1.9-4.7 2.7-4 1.8 0.7-0.9 2.4-2.2 3.7-3 1.3-0.8 3.7-2.6 5.4-3.9 1.7-1.4 7.9-6.1 13.8-10.5 6-4.4 12.3-9.1 14-10.6 1.7-1.4 6-5.4 9.4-9zm-224.3 7.3c-0.2-5.8-0.1-6.1 1.2-4.5 0.8 1.1 1.3 3.7 1.3 6.6 0 3.3-0.3 4.6-1.1 4.4-0.8-0.2-1.2-2.5-1.4-6.5zm20.6 11.2c0-3.9 0.4-6.1 1-5.8 0.5 0.4 0.8 3.4 0.8 6.9-0.1 3.8-0.4 6-1 5.7-0.5-0.2-0.9-3.3-0.8-6.8zm9.3-2c0.5-0.3 1.1-0.6 1.5-0.6 0.5 0 0.8 3 0.8 6.7 0 3.9-0.4 6.8-0.9 6.8-0.5 0-1.1-0.6-1.4-1.4-0.2-0.7-0.5-3.5-0.6-6.1 0-2.6 0.2-5.1 0.6-5.4zm10 7.7c0.5-3.7 1-4.7 2.1-4.5 1.2 0.2 1.5 1.7 1.7 7.2 0.2 6.9 0.2 7-1.8 6.2-1.1-0.4-2.2-1.5-2.4-2.5-0.1-0.9 0-3.8 0.4-6.4zm111.1 7c-5.2 0.9-12.9 1.9-17.1 2.2-4.2 0.3-8.7 0.8-9.9 1.1l-2.3 0.5c3.5 1.4 11 1.9 18.9 1.9 13.8 0 14.6-0.1 17.6-2.1 1.7-1.2 3.4-2.6 3.8-3.1 0.3-0.5 0.4-1.3 0.2-1.6-0.2-0.4-0.7-0.7-1.1-0.6-0.3 0.1-4.9 0.8-10.1 1.7zm-3.1-320.4c-0.3 0.5 0 1 0.6 1.2 0.6 0.2 4.8 1.3 9.2 2.4 4.5 1.1 9.8 2.3 11.7 2.8 2 0.4 6.7 1.7 10.4 2.9 3.7 1.2 9.6 3.6 13 5.3 3.5 1.8 7.2 4.1 8.1 5.2 1.4 1.5 1.8 3 1.6 6.4-0.2 4.3-0.2 4.4 2.5 4.4 2.2 0 3-0.6 4.1-2.9 0.7-1.6 1.3-3.7 1.3-4.5 0-0.9-0.5-2.7-1.1-3.9-0.6-1.3-2.6-3.2-4.3-4.3-1.7-1.1-3.5-2.4-4-2.9-0.5-0.5-2.6-1.6-4.6-2.4-1.9-0.9-7.4-2.7-12.1-4.2-4.7-1.4-12.4-3.2-17.1-4-4.7-0.8-10.9-1.6-13.7-1.9-3-0.3-5.3-0.1-5.6 0.4zm-112.6 7.8c-0.9 0.2-3.8 1.1-6.3 1.9-2.4 0.8-6.3 2.7-8.5 4.2-2.2 1.5-4.7 4-5.6 5.4-1.2 1.9-1.6 3.9-1.4 6.3 0.2 2.1 1.3 4.7 2.6 6.3 1.2 1.4 3 3.3 3.9 4.3 1 0.9 4.8 3.1 8.4 4.8 3.6 1.7 8.8 3.7 11.7 4.4 2.8 0.7 9 2.1 13.7 3.1 4.7 1 12.2 1.9 16.6 2.1 4.7 0.1 8.1-0.1 8.3-0.7 0.2-0.4-2.2-1.4-5.3-2-3.1-0.7-7.7-1.7-10.2-2.2-2.4-0.5-8.7-2.3-13.9-3.9-5.2-1.6-11.7-4-14.4-5.3-2.7-1.4-6.1-3-7.4-3.7-1.4-0.7-3.4-2.8-4.4-4.7-1.4-2.4-1.8-4.1-1.4-6.3 0.4-1.8 1.7-3.7 3.5-5.1 1.6-1.2 5.5-3.4 8.6-4.9 3.1-1.6 5.6-3.2 5.6-3.7 0-0.5-0.5-0.9-1.1-0.8-0.6 0.1-2 0.3-3 0.5zm59.7 3c-1.9 0.5-5.4 1.9-7.9 3.1-2.5 1.3-4.9 3.1-5.4 4.1-0.5 1-0.9 3-0.9 4.5 0 2 0.8 3.3 2.9 4.9 1.9 1.4 5.6 2.7 10.1 3.6 4 0.8 11.9 1.4 17.6 1.4 5.7 0 12.8-0.5 15.7-1 3-0.5 7.2-1.8 9.3-2.9 2.1-1.1 4.5-2.9 5.2-4 0.7-1.1 1.3-2.8 1.3-3.8 0-1-1-2.8-2.3-4.1-1.2-1.2-4.1-3.1-6.5-4.1-3.7-1.7-6.2-2-20-2.2-8.7-0.2-17.3 0.1-19.1 0.5zm2 5.4c4.2-1.5 6.9-1.7 17.1-1.5 7.6 0.2 13.5 0.8 15.7 1.6q3.6 1.3 3.9 3.1c0.2 1.7 0.1 1.7-4.1-0.3-3.1-1.5-6.6-2.2-12.8-2.6-5.4-0.4-10.7-0.2-14.4 0.5-3.2 0.7-7.2 1.9-8.8 2.9-1.6 0.9-3.2 1.5-3.6 1.2-0.3-0.2 0-1.1 0.7-1.8 0.7-0.7 3.6-2.1 6.3-3.1zm86.3 14.5c-2.2 0.9-8.9 3.3-14.9 5.5-6 2.1-10.8 4.2-10.6 4.5 0.2 0.4 1.5 0.7 2.9 0.7 1.3 0 5.3-0.7 8.7-1.7 3.5-0.9 8.2-2.5 10.4-3.6 2.2-1 5.3-2.8 6.7-4 1.5-1.2 2.3-2.3 1.8-2.6-0.6-0.2-2.8 0.3-5 1.2zm9 3.1c-0.7 0.8-1.6 1.4-1.9 1.3-0.4 0-1.8 0.7-3.2 1.6-1.3 1-6.1 2.9-10.6 4.5-4.4 1.5-10.7 3.3-13.9 4.1-3.2 0.7-8.5 1.8-11.7 2.4-3.2 0.6-6.6 1.2-7.4 1.4-0.9 0.2-1.6 0.9-1.6 1.5 0 0.9 2.4 1 10.6 0.6 7.4-0.5 13.7-1.5 21.3-3.5 6-1.6 12.6-3.9 14.8-5.2 2.2-1.4 4.9-3.6 6.1-4.9 1.2-1.4 2.1-3.1 2.1-3.9 0-0.7-0.8-1.3-1.7-1.3-0.9 0-2.2 0.6-2.9 1.4zm0.5 250.2c-3.9 1.7-8 3.1-9 3.1-1 0-2.2 0.4-2.7 0.8-0.5 0.5-4.3 1.7-8.5 2.8-4.2 1-9.4 2.4-11.6 3-2.2 0.6-4.2 1.4-4.5 1.9-0.3 0.5 2.4 0.6 7.1 0.3 4.2-0.3 10.9-1.4 14.8-2.5 4-1.1 10.3-3.4 14-5.1 3.7-1.7 7.5-3.8 8.4-4.6 0.8-0.9 1.5-1.9 1.5-2.2 0-0.4-0.5-0.7-1.1-0.7-0.6 0.1-4.4 1.5-8.4 3.2z"/><path  d="m5022 303.1c-4.1 0.5-11.1 1.8-15.5 2.8-4.4 1.1-11.1 3.2-15 4.8-3.9 1.6-10.1 5-14 7.5-3.9 2.6-13.1 10.2-20.6 17-7.5 6.8-19.5 17.5-26.5 23.9-7.1 6.3-16.5 14.2-20.9 17.5-4.4 3.3-10.7 7.6-14 9.6-3.3 2-9.6 5.3-14 7.3-4.4 2-10.7 4.4-14 5.4-3.3 1.1-10.1 2.7-15 3.6-6.1 1.2-13.9 1.8-24.5 1.8-11.2 0-17.7-0.4-23.5-1.7-4.4-1-12.5-3.3-18-5.2-5.5-1.9-13.1-4.9-17-6.8-3.9-1.8-16.7-9.3-28.5-16.5-11.8-7.3-28.3-16.6-36.5-20.6-8.7-4.3-19.8-8.8-26.5-10.8-8.5-2.6-15.2-3.8-25.5-4.7-7.7-0.7-17.4-1-21.5-0.6-4.1 0.4-11.1 1.4-15.5 2.2-4.4 0.9-11.4 3-15.5 4.6-4.1 1.6-13.6 6.1-21 9.8-7.4 3.8-15.4 8.5-17.8 10.4-2.3 2-4.2 4.3-4.2 5.1 0 0.9 0.9 1.5 2.3 1.5 1.2 0 8.7-3.1 16.7-6.9 8-3.8 19-8.6 24.5-10.8l10-3.8h56c17.1 5.9 26.1 9.8 31 12.4 4.9 2.7 14.6 8.2 21.5 12.3 6.9 4.1 17.9 10.8 24.5 14.8 6.6 4 16.9 9.5 23 12.3 6.1 2.7 16.6 6.5 23.5 8.5 12.1 3.4 13.1 3.5 33.5 4 16.7 0.3 23 0.1 31-1.2 5.5-1 13.4-2.9 17.5-4.2 4.1-1.4 13.4-5.4 20.5-8.8 7.1-3.5 17.9-9.8 24-14.1 6.1-4.2 13.3-9.6 16-12 2.8-2.4 14.9-13.4 27-24.5 17.9-16.4 23.3-20.8 29-23.5 3.9-1.8 11.9-4.8 18-6.7l11-3.3c42 0 54 0.5 59.5 1.4 4.7 0.7 13.2 2.9 19 4.8 5.8 1.9 17.3 6.9 25.5 11.1 8.3 4.2 18.4 10.2 22.5 13.3 4.1 3 9.4 7.7 11.6 10.5 2.3 2.7 7.2 9.6 11 15.4 3.7 5.8 7.6 12.5 8.5 15 0.9 2.5 2.3 8.3 2.9 13 0.7 4.8 1.1 12.7 0.8 18-0.4 6.4-1.2 11.1-2.7 14.5-1.1 2.7-3.5 6.4-5.3 8.1-1.8 1.8-4.7 3.5-6.3 3.9-2.3 0.5-3.7 0.1-6-1.8-1.6-1.3-4.4-4.4-6-6.7-2.9-4.2-3-4.8-3.6-19.4l-0.6-15.1c8.1-17.4 8.7-19.4 7.8-21.3-0.6-1.2-1.5-2.2-2.1-2.2-0.6 0-2.4 1.7-4.2 3.7-1.7 2.1-4.4 6.5-5.9 9.8-1.6 3.3-3.6 10.3-4.5 15.5-0.9 5.6-1.4 12-1.1 15.5 0.3 3.3 1.4 8.2 2.4 11 1 2.7 3.1 7.1 4.6 9.7 1.5 2.7 4.6 6.1 7 7.7 2.3 1.6 6.4 3.5 9 4.3 4.5 1.2 5 1.2 9.4-1.2 2.5-1.4 6.1-4.3 8-6.5 1.8-2.2 4.4-6.7 5.7-10 1.3-3.3 3-9.1 3.6-13 1-5.3 1-9.5 0.1-17.5-0.6-5.8-1.8-13.2-2.6-16.5-0.9-3.3-3.3-9.6-5.4-14-2.2-4.4-6.3-11.6-9.2-16-3.6-5.2-8.6-10.7-14.9-16.3-5.2-4.5-13.3-10.9-18-14.1-4.7-3.2-12.3-7.8-17-10.1-4.7-2.4-13.7-6-20-8-6.3-2.1-15-4.5-19.2-5.4-4.3-0.9-13.5-2.3-20.5-3.1-7.1-0.8-17.1-1.4-22.3-1.4-5.2 0.1-12.9 0.6-17 1zm-4812 87.4v3.5h14v-7h-14zm3772.4-40.3c-0.6 1.9 0.4 3.3 6.2 8.6 3.8 3.5 9.6 8.3 12.9 10.8 5.4 4 6.2 4.3 7.5 3 1.3-1.4 1.3-1.9 0-4.2-0.8-1.5-4.2-5-7.5-7.9-3.3-2.9-8.5-6.8-11.5-8.9-3-2-5.8-3.6-6.2-3.6-0.4 0-1 1-1.4 2.2zm-26.9 0.2c-2.2 0.7-5.1 1.8-6.5 2.6-1.4 0.7-4.2 2.6-6.3 4.1-2.1 1.7-3.7 3.8-3.7 4.9 0 1.1 0.2 2 0.5 2 0.3 0 3.8-1.2 7.7-2.6 4-1.4 11.2-3.9 16-5.5 5.9-1.9 8.8-3.4 8.8-4.4 0-0.8-0.7-1.7-1.5-2-0.8-0.3-3.6-0.5-6.3-0.4-2.6 0-6.5 0.6-8.7 1.3zm-34.6 20.9c-4.7 2.8-11.8 7.2-15.8 9.7-4.1 2.4-7.3 4.7-7.3 5 0.1 0.3 0.8 1.4 1.6 2.5 1.4 2 1.5 1.9 8.7-1.7 4.1-2 10.9-5.9 15.1-8.7 5.4-3.5 8-5.9 8.3-7.5 0.3-1.4 0.3-3 0-3.5-0.3-0.6-0.8-1.1-1.3-1.1-0.4 0-4.6 2.4-9.3 5.3zm325.8-2.3c-1.6 1.2-2.8 2.8-2.8 3.6 0.1 0.8 1.1 1.9 2.3 2.6 1.5 0.7 7.9 1.2 17.8 1.2l15.5 0.1c0.5-4.9 0-6.5-1.1-7.5-1.3-1.1-5-1.6-15.3-1.9-12.7-0.3-13.8-0.2-16.4 1.9zm-33.7 3.3c-4.7 1.3-10.3 3.2-12.5 4.2-2.4 1.2-4.1 2.8-4.3 4-0.1 1.1 0.4 2.9 1.2 4 1.4 2 1.5 2 12.3-0.2 5.9-1.2 13.4-3.2 16.6-4.5 3.2-1.3 5.8-2.8 5.8-3.3 0-0.6-0.9-2.2-2.1-3.8-1.5-2-2.8-2.7-5.3-2.7-1.7 0.1-7 1.1-11.7 2.3zm81.9 0.9c-0.6 1.3-0.9 3.2-0.6 4.3 0.4 1.3 2.5 2.7 6.4 4.2 3.2 1.2 9.4 3.1 13.8 4.2 4.4 1.2 8.8 2.1 9.7 2.1 1 0 2.5-1 3.3-2.3 0.8-1.2 1.5-3 1.5-4 0-1-1.6-2.5-4-3.7-2.2-1.1-7.9-3.1-12.8-4.5-4.8-1.4-10.4-2.5-12.4-2.5-2.9 0-4 0.5-4.9 2.2zm229.6 9.7c-8.8 4.5-16.8 9-17.8 9.9-1 0.9-1.8 1.9-1.8 2.2 0 0.3 1.2 1.1 2.6 1.7 2.1 1.1 3.3 1 7.7-0.8 2.9-1.1 9.8-4.4 15.2-7.2 5.5-2.9 10.3-6.1 10.8-7.2 0.5-1.1 0.5-3.1 0.1-4.4-0.8-2.3-0.9-2.3-16.8 5.8zm-504.5-0.9c-1.1 1.1-2 2.3-2 2.7 0 0.5 1.9 2.4 4.2 4.4 2.4 1.9 7.4 5.4 11.3 7.7 3.8 2.3 7.8 4.2 8.7 4.2 1 0 2.7-1.2 3.8-2.8 1.1-1.5 1.9-2.8 1.8-2.9-0.2 0-3.9-2.2-8.3-4.9-4.4-2.6-10.2-6-12.8-7.5-4.7-2.9-4.8-2.9-6.7-0.9zm148.5 3.9c-5.5 2.1-11.1 4.3-12.5 4.8-1.4 0.6-3.3 1.8-4.3 2.7-1.5 1.5-1.6 1.9-0.2 4.6 1.3 2.7 1.9 2.9 4.7 2.4 1.8-0.4 8.5-2.4 14.8-4.5 6.3-2.2 12.1-4.5 12.8-5.2 1-0.8 1.1-1.8 0.4-3.2-0.5-1.1-1.7-2.8-2.6-3.8-0.9-0.9-1.9-1.7-2.4-1.7-0.4 0-5.2 1.8-10.7 3.9zm175.1 2.5c-0.9 1.4-1.4 3.3-1.1 4.1 0.3 0.8 3.8 3 7.7 4.9 4 1.9 10.1 4.3 13.5 5.5 3.5 1.2 7.8 2.1 9.5 2.1 1.9 0.1 4-0.7 5-1.7 1-1 1.8-2.3 1.8-2.8 0-0.6-0.7-1.7-1.7-2.6-1-0.9-7.2-3.7-13.8-6.2-6.6-2.5-13.6-4.8-15.6-5.2-3.2-0.6-3.8-0.4-5.3 1.9zm-4111.6 2.1v3.5h34v-7h-34zm40 0v3.5h46v-7h-46zm57 0v3.5h49v-7h-49zm56 0v3.5h49v-7h-49zm55 0v3.5h28v-7h-28zm35 0v3.5h35v-7h-35zm43 0v3.5h34v-7h-34zm40 0v3.5h34v-7h-34zm43 0v3.5h27v-7h-27zm671.8-2.8l-20.8 0.3v7h52l-0.5-7.5c-7.7-0.1-19.3 0-30.7 0.2zm54.5 0l-16.3 0.3v7h48l-0.5-7.5c-11.6-0.1-22.3 0-31.2 0.2zm39.7 3.3v4h48v-8h-48zm57 0v4c21.3-0.2 31.3-0.5 36-0.8l8.5-0.7 0.5-6.5h-45zm54-0.5v3.5l57.5-0.5 0.5-6.5h-58zm67 0v3.5h49v-7h-49zm55 0v3.5h48v-7h-48zm52 0v3.5h50v-7h-50zm55 0v3.5h48v-7h-48zm54 0v3.5h48v-7h-48zm53 0v3.5h52v-7h-52zm59 0v3.5h40v-7h-40zm47 0v3.5h29v-7h-29zm35 0v3.5h28v-7h-28zm35 0v3.5h35v-7h-35zm43 0v3.5h34v-7h-34zm40 0v3.5h34v-7h-34zm43 0v3.5h27v-7h-27zm34 0v3.5h25v-7h-25zm32 0v3.5h29v-7h-29zm651.1-2.5c-1.9 0.7-2.4 1.6-2.3 4l0.2 3h53v-8c-37.6 0.1-49.6 0.5-50.9 1zm62-0.3c-0.9 0.3-1.4 1.6-1.3 3.1l0.2 2.7c19 1.2 30.7 1.5 38.3 1.5h13.7v-8c-38.4 0.1-50.2 0.4-50.9 0.7zm61.4 0.2c-2.2 0.5-3 1.3-3.3 3.1-0.2 1.4 0.3 2.8 1 3.2 0.7 0.4 11.5 0.8 24.1 0.8h22.7v-8c-32.2 0.2-42.8 0.5-44.5 0.9zm52.5 3.1v4h48v-8h-48zm56.4-1.3c0.4 1.6 1 3.1 1.4 3.6 0.4 0.4 10.5 1 22.5 1.5l21.7 0.7v-8.5h-46.3zm54.6 1.2v4c48.7 0 55.9-0.3 56.8-1.2 0.7-0.7 1.2-2.5 1.2-4v-2.8h-58zm67-0.5v3.5h49v-7h-49zm55 0v3.5h48v-7h-48zm52 0v3.5h50v-7h-50zm55 0v3.5h48v-7h-48zm54 0v3.5h48v-7h-48zm53 0v3.5h52v-7h-52zm59 0v3.5h40v-7h-40zm47 0v3.5h29v-7h-29zm35 0v3.5h28v-7h-28zm35 0v3.5h35v-7h-35zm43 0v3.5h34v-7h-34zm40 0v3.5h34v-7h-34zm43 0v3.5h27v-7h-27zm34 0v3.5h25v-7h-25zm32 0v3.5h31v-7h-31zm39 0.3v3.7c18.2-0.9 24.7-1.7 26.2-2.3 1.6-0.6 2.8-1.6 2.8-2.2 0-0.5-1.1-1.4-2.5-2-1.4-0.5-7.9-1-14.5-1h-12zm-3227 0.8v3.5h35v-7h-35zm41 0v3.5h59v-7h-59zm68 0v3.5h45v-7h-45zm53 0v3.5h36v-7h-36zm41 0v3.5h44v-7h-44zm51 0v3.5h60v-7h-60zm66 0v3.5h57v-7h-57zm68 0v3.5h40v-7h-40zm53 0v3.5h47v-7h-47zm53 0v3.5h48v-7h-48zm59 0v3.5c40.2-0.4 52.1-0.7 52.4-1 0.4-0.3 0.4-1.7 0.1-3.3l-0.5-2.7h-52zm1029 0v3.5h45v-7h-45zm60 0v3.5h35v-7h-35zm41 0v3.5h59v-7h-59zm68 0v3.5h45v-7h-45zm53 0v3.5h36v-7h-36zm41 0v3.5h44v-7h-44zm51 0v3.5h60v-7h-60zm66 0v3.5h57v-7h-57zm68 0v3.5h40v-7h-40zm53 0v3.5h47v-7h-47zm53 0v3.5h48v-7h-48zm1712.5 5.2c-1.1 0.3-7.6 1.8-14.5 3.5-6.9 1.7-13.5 3.6-14.8 4.2-1.2 0.6-2.3 1.7-2.2 2.3 0 0.7 0.8 2 1.7 2.9 1.5 1.4 3.1 1.6 9.3 1.1 4.1-0.3 10.9-1.3 15-2.3 4.1-0.9 9-2.3 10.7-3 2.2-0.9 3.3-2.1 3.3-3.4 0-1.1-0.5-2.9-1-4-0.6-1.2-1.9-2-3.3-1.9-1.2 0.1-3.1 0.3-4.2 0.6zm-365.5 2.5c-5.8 1.1-11.5 2.4-12.8 2.9-1.2 0.5-2.2 1.8-2.2 2.9 0 1.1 1.2 2.7 2.7 3.7 2.2 1.3 4 1.5 8.8 0.9 3.3-0.4 8.9-1.4 12.5-2.2 3.6-0.8 7.5-1.9 8.7-2.4 1.3-0.6 2.3-1.7 2.3-2.5 0-0.8-1.2-2.4-2.8-3.5-1.5-1.2-3.6-2-4.7-1.9-1.1 0.1-6.7 1-12.5 2.1zm-59.5 0.5c-0.9 1-1.5 2.7-1.3 3.8 0.2 1.5 1.8 2.4 6.8 3.6 3.6 0.9 10.1 2 14.5 2.4 6.4 0.7 8.2 0.5 8.9-0.6 0.4-0.8 0.6-2.4 0.2-3.7-0.5-1.7-1.7-2.4-5.4-3.1-2.6-0.6-7.9-1.5-11.7-2.1-3.9-0.6-7.7-1.3-8.6-1.6-0.9-0.2-2.4 0.3-3.4 1.3zm338 3.2c-0.9 1.7-1.6 3.9-1.6 5.1 0.1 1.1 0.9 2.2 1.8 2.5 1 0.2 5.4 0.9 9.8 1.4 4.4 0.6 12.4 1.2 17.7 1.6 9.7 0.5 9.8 0.5 10.8-2 0.5-1.4 1-3.6 1-5 0-2.4-0.3-2.5-6.3-2.5-3.4 0-11.2-0.7-17.2-1.5-6.1-0.8-11.8-1.7-12.7-2-1.1-0.4-2.2 0.4-3.3 2.4z"/></svg>